<svg width="40" height="40" viewBox="0 0 40 40" fill="none" xmlns="http://www.w3.org/2000/svg">
<path d="M40 26.875C40 30.6719 37.8919 33.75 33.75 33.75H6.25C2.10813 33.75 0 30.6719 0 26.875V13.125C0 9.32812 2.10813 6.25 6.25 6.25H33.75C37.8919 6.25 40 9.32812 40 13.125V26.875Z" fill="#128807"/>
<path d="M35.7125 20.4937L20.0937 31.4687L4.47437 20.4937L20.0937 9.51874L35.7125 20.4937Z" fill="#F9CB38"/>
<path fill-rule="evenodd" clip-rule="evenodd" d="M26.2562 22.405C25.545 24.8219 23.3194 26.6618 20.7994 26.9118C17.4325 27.2487 14.4869 25.1087 13.7706 21.8006C13.5587 20.8284 13.5857 19.8194 13.8494 18.86C13.9475 18.7537 14.0831 18.7281 14.2181 18.7094C15.2029 18.5726 16.1983 18.5293 17.1912 18.58C18.2506 18.64 19.3012 18.7869 20.3225 19.0756C21.3706 19.3725 22.3856 19.76 23.3437 20.275C24.0648 20.6581 24.7535 21.0991 25.4031 21.5937C25.6231 21.7644 25.8475 21.9319 26.0587 22.1137C26.1531 22.195 26.2269 22.2825 26.2556 22.405" fill="#002776"/>
<path fill-rule="evenodd" clip-rule="evenodd" d="M14.2025 17.8819C15.0094 16.0787 16.37 14.8781 18.2506 14.3144C22.0381 13.1787 25.9238 15.6819 26.4869 19.5856C26.5744 20.1887 26.5781 20.7937 26.4856 21.3981C26.39 21.4337 26.3188 21.3831 26.2531 21.3287C25.5667 20.7678 24.8344 20.2656 24.0638 19.8275C23.4704 19.4908 22.8539 19.1967 22.2188 18.9475C22.1063 18.9031 21.965 18.88 21.9263 18.7294C21.9669 18.6569 22.0181 18.5937 22.0794 18.535C22.1013 18.5125 22.1331 18.4906 22.1038 18.4531C22.0938 18.4412 22.0731 18.4412 22.0556 18.4431C22.0088 18.4481 22.015 18.4806 22.0169 18.515C22.0206 18.6269 21.9556 18.6987 21.87 18.7562C21.7181 18.7906 21.5725 18.745 21.4494 18.6794C21.0969 18.4944 20.7069 18.4312 20.3338 18.3281C19.7519 18.17 19.1544 18.0806 18.5581 17.9875C18.0823 17.9115 17.6033 17.8569 17.1225 17.8237C16.685 17.7931 16.2394 17.7975 15.7988 17.8275C15.3181 17.8612 14.8363 17.895 14.3581 17.9525C14.3282 17.9569 14.2976 17.9525 14.27 17.94C14.2424 17.9275 14.219 17.9073 14.2025 17.8819Z" fill="#002776"/>
<path fill-rule="evenodd" clip-rule="evenodd" d="M21.9313 18.6906C21.9288 18.7669 21.9969 18.7569 22.0381 18.7731C23.6521 19.401 25.153 20.2876 26.4819 21.3981C26.4435 21.741 26.3677 22.0787 26.2556 22.405C25.4738 21.7562 24.6731 21.1381 23.7875 20.6331C20.9881 19.0387 17.9906 18.4069 14.7863 18.7456C14.4738 18.7775 14.1613 18.82 13.8488 18.8581C13.9294 18.52 14.0319 18.1881 14.2 17.8806C16.5394 17.565 18.8381 17.7444 21.0938 18.4425C21.3738 18.5294 21.6406 18.6694 21.9394 18.6956L21.9313 18.6887" fill="#FEFEFE"/>
<path fill-rule="evenodd" clip-rule="evenodd" d="M24.8437 22.7188C24.6556 22.6988 24.86 22.9294 24.67 22.9244C24.5044 22.9219 24.4956 22.7894 24.4144 22.7156C24.4769 22.6506 24.5875 22.6375 24.6225 22.5363C24.6462 22.6431 24.7469 22.6656 24.8437 22.7188Z" fill="#D9DFEA"/>
<path fill-rule="evenodd" clip-rule="evenodd" d="M17.7462 23.875C17.5694 23.8956 17.7175 24.0881 17.5694 24.0912C17.42 24.0944 17.3431 23.9837 17.3131 23.8694C17.3025 23.8369 17.4462 23.7644 17.5169 23.7106C17.5256 23.8237 17.6431 23.8187 17.7462 23.875Z" fill="#E9ECF3"/>
<path fill-rule="evenodd" clip-rule="evenodd" d="M20.0875 23.5269C19.8419 23.6856 20.04 23.3269 19.8956 23.3619C19.9425 23.2869 20.075 23.3044 20.0838 23.1894C20.1463 23.2544 20.1994 23.3294 20.2988 23.3431C20.1569 23.3237 20.3113 23.6387 20.0875 23.5269Z" fill="#EDEFF5"/>
<path fill-rule="evenodd" clip-rule="evenodd" d="M15.0125 19.3156C14.9537 19.4275 14.9094 19.5525 14.7312 19.4775C14.64 19.4394 14.7375 19.3144 14.6281 19.3025L14.8306 19.1244C14.8444 19.1537 14.8606 19.1819 14.8744 19.2112C14.8906 19.2856 15.0387 19.1869 15.0125 19.3156Z" fill="#F0F2F6"/>
<path fill-rule="evenodd" clip-rule="evenodd" d="M15.5794 22.0312C15.4862 22.0606 15.5531 22.3056 15.3531 22.1987C15.3331 22.1887 15.2456 22.2369 15.2619 22.2087C15.3144 22.1062 15.1969 22.0562 15.215 21.9744C15.3244 22.0219 15.3181 21.8219 15.43 21.8756C15.4381 21.8819 15.4381 21.9069 15.4437 21.9231C15.4556 22.0006 15.6069 21.9037 15.5794 22.0312Z" fill="#ECEFF4"/>
<path fill-rule="evenodd" clip-rule="evenodd" d="M14.5963 22.755C14.4044 22.8219 14.5475 22.59 14.4375 22.5919C14.4888 22.5487 14.5463 22.4681 14.5975 22.4712C14.6588 22.4744 14.715 22.55 14.7713 22.5931C14.6875 22.6212 14.7756 22.8481 14.5963 22.755Z" fill="#D9DFEA"/>
<path fill-rule="evenodd" clip-rule="evenodd" d="M22.0125 24.9669C21.8093 25.0594 22.0068 24.7862 21.8712 24.8219C21.8575 24.7175 22.0268 24.7806 22.0056 24.6706L22.1887 24.8175C22.1143 24.8512 22.1887 25.0637 22.0125 24.9669Z" fill="#D8DEEA"/>
<path fill-rule="evenodd" clip-rule="evenodd" d="M23.3125 24.8162C23.1444 24.8862 23.2475 24.66 23.1569 24.6375C23.2181 24.5981 23.2825 24.5562 23.3425 24.5156C23.3475 24.6081 23.4744 24.5744 23.4881 24.6562C23.3937 24.6619 23.4919 24.8656 23.3125 24.8162ZM24.4812 23.975C24.29 24.0719 24.4312 23.8175 24.3219 23.8281C24.3437 23.7469 24.4694 23.7775 24.4769 23.6837L24.6562 23.8181C24.5469 23.815 24.6812 24.0831 24.4812 23.975Z" fill="#DCE1EC"/>
<path fill-rule="evenodd" clip-rule="evenodd" d="M16.7394 22.8081C16.5394 22.9212 16.67 22.6681 16.5775 22.6631C16.5869 22.57 16.7281 22.61 16.7344 22.5112C16.7531 22.6025 16.8744 22.5762 16.9006 22.6581C16.7813 22.6406 16.9513 22.9275 16.7394 22.8081Z" fill="#D4DAE7"/>
<path fill-rule="evenodd" clip-rule="evenodd" d="M17.55 20.9094C17.4369 20.9019 17.5819 20.7237 17.4431 20.735C17.4669 20.635 17.5737 20.6556 17.6325 20.6037C17.6625 20.6669 17.7475 20.6812 17.7519 20.7719C17.7619 20.9375 17.615 20.8519 17.55 20.9094Z" fill="#F2F4F7"/>
<path fill-rule="evenodd" clip-rule="evenodd" d="M20.8438 22.2294C20.6706 22.3287 20.7619 22.1069 20.6819 22.0825C20.7363 22.0375 20.7888 21.9919 20.8438 21.9456C20.8475 22.0381 21.0244 22.0175 20.9744 22.0887C20.9444 22.1312 21.0413 22.3256 20.8438 22.2294Z" fill="#E6E9F1"/>
<path fill-rule="evenodd" clip-rule="evenodd" d="M20.0688 21.6725C19.8713 21.6925 20.075 21.5131 19.9469 21.5175C19.9969 21.4706 20.045 21.3906 20.1013 21.3856C20.15 21.3806 20.2063 21.46 20.2594 21.5037C20.19 21.5706 20.2006 21.7431 20.0688 21.6725Z" fill="#EAEDF3"/>
<path fill-rule="evenodd" clip-rule="evenodd" d="M24.8637 23.1312C24.9044 23.2387 24.9844 23.2531 25.0469 23.2912C24.9831 23.3631 24.9581 23.4731 24.8256 23.4731C24.69 23.4744 24.7819 23.3712 24.7512 23.3231C24.6756 23.2031 24.955 23.3044 24.8637 23.1312Z" fill="#E4E8F0"/>
<path fill-rule="evenodd" clip-rule="evenodd" d="M23.4487 25.3087C23.4012 25.3794 23.4337 25.4469 23.3075 25.4494C23.1631 25.4519 23.2094 25.3462 23.2031 25.3137C23.1912 25.26 23.2737 25.2087 23.3212 25.2194C23.3625 25.2269 23.4425 25.25 23.4487 25.3087Z" fill="#CED5E4"/>
<path fill-rule="evenodd" clip-rule="evenodd" d="M16.6963 23.3062C16.5931 23.3181 16.6788 23.4531 16.5481 23.4487C16.4288 23.445 16.4463 23.3644 16.4331 23.3156C16.4125 23.2475 16.5131 23.2494 16.5356 23.1981C16.5831 23.2312 16.6313 23.2644 16.6963 23.3062Z" fill="#DAE0EB"/>
<path fill-rule="evenodd" clip-rule="evenodd" d="M23.1688 24.02C23.2131 23.9869 23.2575 23.9562 23.3044 23.925C23.3081 23.9944 23.4575 23.9544 23.4075 24.0431C23.3869 24.0787 23.4375 24.1762 23.3081 24.1675C23.1919 24.1594 23.2194 24.0781 23.1688 24.02Z" fill="#D8DEE9"/>
<path fill-rule="evenodd" clip-rule="evenodd" d="M22.6937 24.2344C22.6712 24.3575 22.6012 24.3775 22.5243 24.3919C22.3937 24.4137 22.4918 24.3156 22.4706 24.2781C22.4156 24.1844 22.5543 24.2025 22.5706 24.1412C22.6068 24.1887 22.69 24.1875 22.6937 24.2344Z" fill="#CBD2E3"/>
<path fill-rule="evenodd" clip-rule="evenodd" d="M21.9625 20.1812C21.9187 20.2019 21.9769 20.3062 21.8831 20.2762C21.8119 20.2519 21.7244 20.2181 21.7306 20.1306C21.7331 20.0969 21.8181 20.0687 21.8656 20.0394C21.8737 20.1025 22.0087 20.0819 21.9625 20.1812Z" fill="#D1D8E6"/>
<path fill-rule="evenodd" clip-rule="evenodd" d="M25.4994 22.9225C25.3819 22.9688 25.435 22.8719 25.4144 22.8438C25.3356 22.7369 25.4913 22.7525 25.4994 22.6888C25.5475 22.7206 25.6413 22.7569 25.6375 22.7844C25.6348 22.8201 25.6194 22.8537 25.594 22.879C25.5687 22.9043 25.5351 22.9198 25.4994 22.9225Z" fill="#DADFEA"/>
<path fill-rule="evenodd" clip-rule="evenodd" d="M19.4563 21.9688C19.4563 22.0413 19.6025 22.0125 19.5531 22.1031C19.5331 22.14 19.5756 22.2388 19.4744 22.2181C19.3975 22.2025 19.32 22.1575 19.3175 22.0813C19.3175 22.0456 19.4063 22.0075 19.4563 21.9688Z" fill="#CAD2E2"/>
<path fill-rule="evenodd" clip-rule="evenodd" d="M21.4562 24.23C21.3987 24.2031 21.3962 24.1275 21.4 24.0912C21.4062 24.0431 21.4706 23.9781 21.5256 24.0044C21.5594 24.0206 21.655 24.0112 21.6319 24.0987C21.6106 24.1825 21.5269 24.1944 21.4562 24.23Z" fill="#D0D7E5"/>
<path fill-rule="evenodd" clip-rule="evenodd" d="M23.875 24.12C23.8775 24.1194 23.9212 24.0587 23.9706 24.0575C24.0062 24.0562 24.0425 24.13 24.0806 24.1712C24.0294 24.1856 24.0731 24.28 23.9719 24.2787C23.8806 24.2769 23.8806 24.2356 23.875 24.12Z" fill="#EFF2F6"/>
<path fill-rule="evenodd" clip-rule="evenodd" d="M19.8537 22.5375C19.8369 22.605 19.8369 22.6469 19.7769 22.6456C19.7156 22.6444 19.6856 22.6219 19.6869 22.5594C19.6869 22.51 19.7194 22.4756 19.7562 22.4787C19.7987 22.4819 19.8594 22.4937 19.8537 22.5375Z" fill="#CCD4E3"/>
<path fill-rule="evenodd" clip-rule="evenodd" d="M16.0212 21.565C16.0512 21.5975 16.0856 21.6231 16.0987 21.6563C16.11 21.6838 16.0925 21.7256 16.0537 21.73C16.0106 21.7338 15.9643 21.7325 15.9506 21.6788C15.9381 21.6263 15.9837 21.6075 16.0212 21.565Z" fill="#E0E5EE"/>
<path fill-rule="evenodd" clip-rule="evenodd" d="M15.5794 22.0312C15.5625 21.9594 15.4512 22.005 15.4437 21.9225C15.4675 21.985 15.6531 21.8456 15.5794 22.0312Z" fill="#7085B1"/>
<path fill-rule="evenodd" clip-rule="evenodd" d="M15.0125 19.3156C14.9988 19.2387 14.8806 19.2994 14.8744 19.2112C14.9075 19.2637 15.075 19.1394 15.0125 19.3156Z" fill="#5C75A7"/>
<path fill-rule="evenodd" clip-rule="evenodd" d="M21.9437 18.6975C21.9556 18.65 21.9937 18.5725 21.9787 18.5581C21.775 18.3769 22.0469 18.3462 22.0875 18.3094C22.1619 18.2375 22.15 18.5406 22.3462 18.3487C22.2406 18.5831 22.0994 18.6506 21.9369 18.6906L21.9437 18.6975Z" fill="#E7EAF2"/>
<path fill-rule="evenodd" clip-rule="evenodd" d="M15.9194 18.5031C15.7206 18.4838 15.8975 18.225 15.8544 18.075C15.8006 17.8813 15.9419 17.8838 16.0794 17.8831C16.2925 17.8819 16.4131 17.9719 16.4131 18.1969C16.4125 18.4181 16.31 18.5056 15.9194 18.5031Z" fill="#15A24A"/>
<path fill-rule="evenodd" clip-rule="evenodd" d="M23.5131 19.7519C23.4694 19.8856 23.3075 19.9694 23.28 20.1344C23.2775 20.1562 23.215 20.1519 23.2031 20.0881C23.1531 19.7894 23.1506 19.79 22.93 19.95C22.9125 19.9631 22.8819 19.975 22.865 19.9694C22.8325 19.955 22.8194 19.9225 22.8388 19.8856C22.9119 19.7431 22.9806 19.5969 23.0625 19.4587C23.1175 19.3675 23.1844 19.4437 23.2381 19.47C23.3563 19.5281 23.5019 19.5612 23.5131 19.7519Z" fill="#13A248"/>
<path fill-rule="evenodd" clip-rule="evenodd" d="M24.0725 20.2381C23.9575 20.2844 23.9019 20.1975 23.8281 20.1662C23.7781 20.145 23.7313 20.125 23.6975 20.1806C23.6606 20.2394 23.6975 20.2731 23.7481 20.2994C23.7869 20.3187 23.8281 20.3337 23.8569 20.3644C23.9075 20.4175 24.0663 20.4031 24.0019 20.5162C23.9513 20.6062 23.8663 20.5012 23.81 20.4681C23.7131 20.4087 23.5213 20.3762 23.5419 20.2731C23.5738 20.1075 23.6681 19.9275 23.7938 19.8137C23.8944 19.7225 24.0056 19.895 24.1188 19.9381C24.1675 19.9562 24.2506 19.9725 24.2363 20.0494C24.2225 20.1287 24.1638 20.0825 24.1188 20.0719C24.0131 20.0475 23.9106 19.8687 23.8275 19.9925C23.7775 20.0662 23.9831 20.0969 24.0481 20.1781C24.0581 20.19 24.0606 20.2062 24.0725 20.2381ZM25.4194 21.1219C25.4381 21.2681 25.3788 21.3675 25.2256 21.3425C25.0669 21.3162 24.9463 21.2194 24.9188 21.0456C24.9163 21.0281 24.9375 20.9925 24.955 20.9875C24.9651 20.9842 24.9758 20.9831 24.9863 20.9844C24.9968 20.9857 25.0069 20.9892 25.0159 20.9948C25.0249 21.0004 25.0326 21.0079 25.0384 21.0168C25.0441 21.0257 25.0479 21.0357 25.0494 21.0462C25.0694 21.1656 25.1319 21.2187 25.2575 21.2212C25.2819 21.0256 24.9288 20.9362 25.1319 20.7331C25.2338 20.6312 25.3581 20.7156 25.4469 20.7975C25.5288 20.8719 25.6288 20.9537 25.4794 21.06C25.4581 21.0487 25.4294 21.0306 25.4138 21.0431C25.3819 21.0644 25.4131 21.095 25.4194 21.1219Z" fill="#11A147"/>
<path fill-rule="evenodd" clip-rule="evenodd" d="M21.1025 19.2606C21.0281 19.2187 21.0318 19.1787 21.0437 19.135C21.0675 19.0419 21.0193 18.9931 20.9343 18.9669C20.8493 18.9394 20.7837 18.9431 20.7606 19.0494C20.7525 19.0969 20.7275 19.13 20.6756 19.1125C20.6156 19.0906 20.6456 19.0419 20.6568 19.0062C20.6806 18.9244 20.7018 18.8419 20.7393 18.7637C20.7731 18.6856 20.7493 18.5425 20.8725 18.5519C21.0031 18.5612 21.1443 18.5925 21.2437 18.7006C21.2881 18.7481 21.3062 18.83 21.27 18.8656C21.1643 18.9744 21.1731 19.1281 21.1025 19.2606Z" fill="#0FA046"/>
<path fill-rule="evenodd" clip-rule="evenodd" d="M17.2456 18.465C17.0437 18.5412 16.8844 18.4969 16.7287 18.5C16.6581 18.5019 16.6519 18.4487 16.6519 18.395C16.6569 18.3356 16.6569 18.2756 16.6569 18.2162C16.6644 17.8869 16.7812 17.8025 17.105 17.8944C17.1412 17.9044 17.1756 17.9106 17.1781 17.9512C17.1781 18.0075 17.1375 18.0175 17.0875 18.0162C17.0806 18.015 17.0725 18.0131 17.0637 18.0144C16.9669 18.0381 16.7931 17.9287 16.79 18.0737C16.7862 18.185 16.9756 18.1062 17.0725 18.1437C17.0862 18.1494 17.1012 18.1619 17.1225 18.1775C17.0612 18.2881 16.9594 18.2262 16.8806 18.2394C16.8337 18.2469 16.7725 18.2262 16.7656 18.3025C16.7569 18.3925 16.8194 18.3881 16.8806 18.3944C16.985 18.4069 17.0981 18.3675 17.2456 18.465Z" fill="#0B9F43"/>
<path fill-rule="evenodd" clip-rule="evenodd" d="M15.5862 18.5125C15.4775 18.4888 15.4925 18.4263 15.4737 18.3825C15.4412 18.3019 15.3769 18.3019 15.3062 18.3075C15.2256 18.315 15.1819 18.3463 15.1887 18.4356C15.1937 18.4794 15.2112 18.55 15.13 18.54C15.06 18.5313 15.08 18.4631 15.0762 18.4169C15.07 18.3413 15.0625 18.2638 15.07 18.1888C15.08 18.105 15 17.9769 15.1206 17.9469C15.245 17.9144 15.3887 17.8913 15.5181 17.9531C15.5744 17.98 15.6187 18.0456 15.5981 18.0988C15.5506 18.2325 15.5881 18.3681 15.5862 18.5125Z" fill="#079D3F"/>
<path fill-rule="evenodd" clip-rule="evenodd" d="M14.2668 18.3C14.2868 18.1306 14.3612 17.9931 14.5468 17.9994C14.725 18.005 14.82 18.1287 14.82 18.3069C14.82 18.4837 14.7375 18.6056 14.5493 18.6044C14.3581 18.6031 14.2931 18.4644 14.2668 18.3Z" fill="#15A24A"/>
<path fill-rule="evenodd" clip-rule="evenodd" d="M26.165 21.475C26.1475 21.6431 26.0644 21.77 25.8725 21.7869C25.6956 21.8012 25.6019 21.7 25.5881 21.5337C25.5725 21.3656 25.7375 21.205 25.9056 21.2062C26.0531 21.2075 26.1612 21.3144 26.165 21.475Z" fill="#11A147"/>
<path fill-rule="evenodd" clip-rule="evenodd" d="M22.6563 19.5187C22.7975 19.6325 22.6263 19.7075 22.62 19.8031C22.5025 19.7487 22.3556 19.7706 22.2606 19.6675C22.1594 19.5575 22.1781 19.4331 22.2444 19.3119C22.3175 19.1837 22.43 19.1287 22.5681 19.1775C22.6944 19.2225 22.7888 19.3075 22.7275 19.4675C22.6306 19.485 22.5513 19.3575 22.415 19.4431C22.5056 19.485 22.6144 19.4269 22.6563 19.5187Z" fill="#0C9F43"/>
<path fill-rule="evenodd" clip-rule="evenodd" d="M19.2563 18.2312C19.1738 18.3281 19.1131 18.2906 19.0563 18.2919C19.0013 18.2919 18.9425 18.2462 18.8744 18.3031C18.9356 18.4031 19.0838 18.3387 19.1413 18.4381C19.1331 18.4525 19.1294 18.4719 19.1188 18.4819C19.0363 18.5469 18.9044 18.3894 18.8531 18.5194C18.8063 18.6312 18.9294 18.5925 18.9825 18.6112C19.0425 18.635 19.1169 18.6262 19.1894 18.7075C19.0213 18.7812 18.8206 18.7469 18.7513 18.6656C18.6419 18.5375 18.7188 18.31 18.8019 18.1962C18.9 18.0619 19.0794 18.1931 19.2563 18.2312Z" fill="#19A44D"/>
<path fill-rule="evenodd" clip-rule="evenodd" d="M20.3219 18.775C20.18 18.76 20.0188 18.66 19.9781 18.8937C19.9769 18.9012 19.9275 18.9119 19.9125 18.9019C19.8956 18.8925 19.8863 18.8575 19.8894 18.8375C19.9263 18.6893 19.945 18.5306 20.0106 18.3975C20.0869 18.2475 20.2163 18.3744 20.3231 18.3887C20.4506 18.4056 20.5213 18.4831 20.5075 18.6175C20.495 18.7331 20.4075 18.7644 20.3219 18.775Z" fill="#0D9F44"/>
<path fill-rule="evenodd" clip-rule="evenodd" d="M22.0125 19.1331C21.9988 19.3212 21.9063 19.4512 21.7181 19.4569C21.55 19.4631 21.4556 19.345 21.4594 19.1775C21.4644 18.9962 21.5525 18.865 21.7481 18.8594C21.9275 18.8531 21.9969 18.9737 22.0125 19.1331Z" fill="#0FA046"/>
<path fill-rule="evenodd" clip-rule="evenodd" d="M17.7993 18.4544C17.7787 18.4987 17.7618 18.5619 17.7025 18.5475C17.5993 18.5231 17.6456 18.4237 17.6206 18.3587C17.5443 18.2844 17.5643 18.3869 17.5406 18.4056C17.5318 18.4519 17.5531 18.5225 17.4906 18.5319C17.4137 18.5412 17.4318 18.4675 17.4337 18.4237C17.44 18.3325 17.4412 18.2369 17.4662 18.1494C17.4881 18.0744 17.4087 17.9362 17.5581 17.935C17.69 17.9344 17.6612 18.0687 17.6781 18.1494C17.6956 18.2419 17.705 18.2812 17.7806 18.1894C17.8587 18.1688 17.875 18.2256 17.8931 18.2806C17.9031 18.3606 17.8675 18.4162 17.7993 18.4544Z" fill="#0EA044"/>
<path fill-rule="evenodd" clip-rule="evenodd" d="M24.4562 20.75C24.5025 20.75 24.5493 20.8113 24.5943 20.7588C24.6287 20.7194 24.5981 20.6806 24.5675 20.6488C24.545 20.6244 24.5212 20.6013 24.5 20.575C24.4362 20.4981 24.3468 20.4244 24.435 20.3131C24.515 20.2113 24.6081 20.2363 24.7006 20.3006C24.7175 20.3331 24.7118 20.3644 24.6943 20.3938C24.6262 20.5006 24.7531 20.5656 24.7506 20.6569C24.77 20.7425 24.7825 20.8288 24.6881 20.8781C24.5706 20.9406 24.48 20.8831 24.3937 20.8081C24.3843 20.7588 24.4025 20.7344 24.4562 20.75Z" fill="#10A146"/>
<path fill-rule="evenodd" clip-rule="evenodd" d="M22.6563 19.5187C22.6081 19.5525 22.5113 19.4431 22.5144 19.5256C22.5206 19.6719 22.4475 19.6587 22.3794 19.6156C22.2875 19.5587 22.2825 19.4612 22.3406 19.3712C22.3969 19.2831 22.4763 19.2319 22.5725 19.3037C22.6313 19.3469 22.6756 19.4119 22.7263 19.4675L22.6563 19.5187Z" fill="#ECF7F0"/>
<path fill-rule="evenodd" clip-rule="evenodd" d="M17.8406 18.3062C17.8224 18.2676 17.8023 18.2299 17.7806 18.1931C17.8025 18.1375 17.8225 18.0812 17.8488 18.0275C17.8725 17.9769 17.9138 17.9487 17.9719 17.9675C18.0369 17.9894 18.0319 18.0394 18.0281 18.0919C18.0144 18.245 18.0019 18.3975 17.99 18.5506C17.8988 18.6087 17.8756 18.5556 17.8606 18.4769C17.8494 18.42 17.8788 18.3587 17.8406 18.3062Z" fill="#17A34C"/>
<path fill-rule="evenodd" clip-rule="evenodd" d="M24.7525 20.6562C24.6963 20.5987 24.6363 20.5444 24.5838 20.4831C24.5225 20.4106 24.5463 20.3662 24.6375 20.3544C24.7694 20.3837 24.85 20.4475 24.8113 20.5987C24.7932 20.6175 24.7732 20.6375 24.7525 20.6562Z" fill="#D7EFE0"/>
<path fill-rule="evenodd" clip-rule="evenodd" d="M24.8113 20.5987C24.7506 20.52 24.7344 20.4075 24.6375 20.3544L24.7025 20.3C24.8075 20.3744 24.9994 20.4169 24.8113 20.5987Z" fill="#2BAB5B"/>
<path fill-rule="evenodd" clip-rule="evenodd" d="M25.4194 21.1219C25.4113 21.1169 25.4006 21.1144 25.3969 21.1075C25.3469 21.015 25.1813 20.9319 25.2375 20.85C25.3081 20.7513 25.3819 20.8681 25.4206 20.9525C25.4381 20.9881 25.4594 21.0231 25.4794 21.06C25.4588 21.0806 25.4381 21.1013 25.4194 21.1219Z" fill="#E6F5EC"/>
<path fill-rule="evenodd" clip-rule="evenodd" d="M24.4562 20.75C24.4362 20.7694 24.4169 20.7894 24.3937 20.8088C24.3675 20.79 24.3312 20.7769 24.3144 20.75C24.2825 20.6894 24.1912 20.6088 24.2969 20.5613C24.3856 20.5188 24.3856 20.6319 24.4144 20.6869C24.4262 20.71 24.4412 20.7294 24.4562 20.75Z" fill="#29AA59"/>
<path fill-rule="evenodd" clip-rule="evenodd" d="M17.8406 18.3062C17.9319 18.3419 17.8838 18.4181 17.885 18.475C17.89 18.5531 17.9175 18.5794 17.9906 18.5519C17.8381 18.6994 17.8575 18.5025 17.7988 18.4587C17.8144 18.4069 17.8263 18.3562 17.8406 18.3062Z" fill="#DDF1E4"/>
<path fill-rule="evenodd" clip-rule="evenodd" d="M17.5375 18.4062V18.205C17.6237 18.2325 17.6262 18.2931 17.6175 18.3594C17.5912 18.375 17.5637 18.39 17.5375 18.4062Z" fill="#6FC690"/>
<path fill-rule="evenodd" clip-rule="evenodd" d="M15.98 18.2C15.9887 18.1087 15.945 17.99 16.1006 18C16.2144 18.0069 16.2969 18.0525 16.3031 18.1825C16.3094 18.3225 16.2275 18.3794 16.0981 18.3887C15.9337 18.4019 16.0006 18.2725 15.98 18.2Z" fill="#F5FBF7"/>
<path fill-rule="evenodd" clip-rule="evenodd" d="M23.1875 19.575C23.2525 19.6106 23.3519 19.6175 23.3731 19.7137C23.3838 19.7637 23.3406 19.7969 23.2963 19.7825C23.2138 19.7575 23.1044 19.7562 23.0931 19.64C23.09 19.6062 23.1263 19.5637 23.1875 19.575Z" fill="#EFF8F3"/>
<path fill-rule="evenodd" clip-rule="evenodd" d="M21.1606 18.8063C21.1437 18.8712 21.0981 18.8937 21.0456 18.8744C20.975 18.8487 20.8612 18.8769 20.86 18.7531C20.8575 18.6887 20.9012 18.6694 20.96 18.6888C21.0375 18.7138 21.1312 18.7106 21.1606 18.8063Z" fill="#DEF2E5"/>
<path fill-rule="evenodd" clip-rule="evenodd" d="M15.3219 18.0369C15.3831 18.0444 15.48 18.0119 15.4737 18.1162C15.4675 18.2075 15.375 18.1931 15.3087 18.1944C15.2556 18.1962 15.1794 18.2237 15.1744 18.1281C15.1706 18.0144 15.2594 18.05 15.3219 18.0369Z" fill="#F3FAF5"/>
<path fill-rule="evenodd" clip-rule="evenodd" d="M14.5313 18.1237C14.6444 18.1312 14.7006 18.1987 14.705 18.305C14.7113 18.4 14.6644 18.4812 14.5669 18.49C14.4544 18.5006 14.4038 18.415 14.3975 18.3106C14.3913 18.2144 14.4288 18.1444 14.5313 18.1237Z" fill="#F3FAF6"/>
<path fill-rule="evenodd" clip-rule="evenodd" d="M26.0406 21.4969C26.0243 21.6006 25.9618 21.6738 25.8412 21.6738C25.7443 21.6725 25.7081 21.6019 25.7181 21.5163C25.7275 21.4 25.7968 21.325 25.915 21.3269C26.0081 21.3294 26.0443 21.3963 26.0406 21.4969Z" fill="#F9FCFA"/>
<path fill-rule="evenodd" clip-rule="evenodd" d="M20.175 18.4675C20.2381 18.5062 20.365 18.4662 20.3831 18.5912C20.3888 18.6387 20.3363 18.6631 20.2944 18.6537C20.2125 18.6356 20.0981 18.665 20.0881 18.5331C20.0863 18.4925 20.1044 18.4487 20.175 18.4675Z" fill="#E7F5EC"/>
<path fill-rule="evenodd" clip-rule="evenodd" d="M21.8875 19.1481C21.8756 19.2563 21.8225 19.3319 21.7131 19.3319C21.6056 19.3331 21.5675 19.2581 21.5725 19.1594C21.5813 19.0506 21.6431 18.9781 21.7488 18.9738C21.8538 18.97 21.8875 19.0538 21.8875 19.1481Z" fill="#F5FBF7"/>
</svg>
